<svg id="Layer_1" data-name="Layer 1" xmlns="http://www.w3.org/2000/svg" viewBox="0 0 112.7 109.63"><title>github</title><path class="cls-1" d="M88,33.9A56.27,56.27,0,0,0,70.1,143.5c2.8,0.3,3.8-1.4,3.8-2.8V131c-15.5,3.4-19-7.6-19-7.6-2.4-6.5-6.2-8.3-6.2-8.3-5.2-3.4.3-3.4,0.3-3.4,5.5,0.3,8.6,5.9,8.6,5.9,5.2,8.6,13.1,6.2,16.2,4.8a12.27,12.27,0,0,1,3.4-7.6c-12.4-1.4-25.5-6.2-25.5-27.9a21.56,21.56,0,0,1,5.9-15.2c-0.7-1.4-2.4-7.2.7-14.8,0,0,4.8-1.4,15.5,5.9a47.42,47.42,0,0,1,14.1-1.7A64.79,64.79,0,0,1,102,62.8c10.7-7.2,15.5-5.9,15.5-5.9a21.85,21.85,0,0,1,.7,14.8,22.66,22.66,0,0,1,5.9,15.2c0,21.7-13.1,26.2-25.5,27.6,2.1,1.7,3.8,5.2,3.8,10.3v15.5c0,1.4,1,3.1,3.8,2.8A56,56,0,0,0,88,33.9Z" transform="translate(-31.8 -33.9)"/></svg>