<?xml version="1.0" encoding="utf-8"?>
<!-- Generator: Adobe Illustrator 19.2.1, SVG Export Plug-In . SVG Version: 6.00 Build 0)  -->
<svg version="1.1" xmlns="http://www.w3.org/2000/svg" xmlns:xlink="http://www.w3.org/1999/xlink" x="0px" y="0px"
	 viewBox="0 0 173 173" style="enable-background:new 0 0 173 173;" xml:space="preserve">
<style type="text/css">
	.st0{display:none;}
	.st1{display:inline;}
</style>
<g id="draft_1_" class="st0">
	<g class="st1">
		<path d="M150.2,134.4c0-14-8-48-19.6-67.1c15.6-3.9,26.6-13,26.6-23.7c0-8-6.1-15.1-15.6-19.8L130.6,0l-8.2,18.3
			c-2.7-0.3-5.5-0.5-8.4-0.5c-2.9,0-5.7,0.2-8.4,0.5L97.2,0L86.3,23.8c-9.5,4.7-15.6,11.8-15.6,19.8c0,10.7,11,19.9,26.6,23.7
			c-4.1,6.8-7.8,15.4-10.8,24.3c-0.4-4.1-1.6-8.3-3.9-12c-9.9-16-31-21.1-47-11.2c-19.7,12.1-25.9,38-13.7,57.7
			c7.2,11.8,18.6,20,32,23.2c4,1,8,1.4,12.1,1.4c3.5,0,7-0.5,10.4-1.2c-1.3,4.6-2.1,9.4-2.1,13.3c0,10.5,5.6,10.1,12.5,10.1
			c5.7,0,10.5,0.2,12-5.8c4.7,2.2,9.8,3.4,15.3,3.4c5.5,0,10.7-1.3,15.3-3.4c1.5,6,6.2,5.8,12,5.8c6.9,0,12.5,0.4,12.5-10.1
			c0-5.9-1.8-14-4.5-20C149.9,140.1,150.2,137.3,150.2,134.4z M55.4,143.2c-11.8-2.8-21.8-10-28.1-20.4
			c-10.3-16.8-5.1-38.8,11.7-49.1c13.1-8.1,30.4-4,38.4,9.2c6.3,10.2,3.1,23.6-7.1,29.9c-3.8,2.3-8.3,3.1-12.7,2
			c-4.4-1-8-3.7-10.4-7.5c-3.7-6-1.8-13.9,4.2-17.6c1.5-0.9,1.9-2.8,1-4.3c-0.9-1.5-2.8-1.9-4.3-1c-8.9,5.5-11.7,17.2-6.2,26.2
			c3.2,5.2,8.3,8.9,14.2,10.3c6,1.4,12.1,0.4,17.4-2.8c3.1-1.9,5.6-4.3,7.6-7c-2.1,9.4-3.4,17.8-3.4,23.3c0,2.8,0.4,5.6,1,8.2
			C71.2,144.8,63.2,145.1,55.4,143.2z M96.8,46.3c-6,0-10.9-2.1-10.9-4.6c0-2.1,3.4-3.9,8.1-4.4l2.8,6.6l2.8-6.6
			c4.6,0.5,8.1,2.3,8.1,4.4C107.7,44.3,102.8,46.3,96.8,46.3z M120.3,41.7c0-2.1,3.4-3.9,8.1-4.4l2.8,6.6l2.8-6.6
			c4.6,0.5,8.1,2.3,8.1,4.4c0,2.6-4.9,4.6-10.9,4.6C125.1,46.3,120.3,44.3,120.3,41.7z"/>
	</g>
	<g class="st1">
		<path d="M293.4,82.7c15.6-3.9,26.6-13,26.6-23.7c0-8-6.1-15.1-15.6-19.8l-11-23.8l-8.2,18.3c-2.7-0.3-5.5-0.5-8.4-0.5
			c-2.9,0-5.7,0.2-8.4,0.5L260,15.3l-10.8,23.8c-9.5,4.7-15.6,11.8-15.6,19.8c0,10.7,11,19.9,26.6,23.7c0,0,5.6,2,16.3,2
			C287.2,84.7,293.4,82.7,293.4,82.7z M259.7,61.7c-6,0-10.9-2.1-10.9-4.6c0-2.1,3.4-3.9,8.1-4.4l2.8,6.6l2.8-6.6
			c4.6,0.5,8.1,2.3,8.1,4.4C270.5,59.6,265.7,61.7,259.7,61.7z M283.1,57c0-2.1,3.4-3.9,8.1-4.4l2.8,6.6l2.8-6.6
			c4.6,0.5,8.1,2.3,8.1,4.4c0,2.6-4.9,4.6-10.9,4.6C288,61.7,283.1,59.6,283.1,57z"/>
	</g>
	<path class="st1" d="M265.6,109.6L265.6,109.6c-0.7,1.4-1.9,2.3-2.7,2l-31.6-9.4c-6.1-2.3-8.1-7.3-5.9-11.7l0,0
		c2.1-4.4,7-5.4,12.6-2l27.5,17.7C266.2,106.7,266.2,108.2,265.6,109.6z"/>
	<path class="st1" d="M264.3,72.7c-13.6,11.1-14.8,23.8-14.8,27.9c0,2.1,0.3,4.2,0.7,6.2l-1.8,5.3c-1,3.4-1.6,7.1-1.6,10
		c0,7.9,4.2,7.6,9.4,7.6c4.3,0,7.9,0.1,9-4.3c3.5,1.6,7.4,2.6,11.5,2.6c4.1,0,8-0.9,11.5-2.6c1.1,4.5,4.7,4.3,9,4.3
		c5.2,0,9.4,0.3,9.4-7.6c0-4.5-1.3-10.6-3.4-15.1c0.5-2,0.8-4.2,0.8-6.3c0-10.6-4.7-19.1-14.8-27.9H264.3z"/>
</g>
<g id="logo">
	<path d="M144.9,68.9c0-9.7-7.4-18.4-19.1-24.1l-13.5-29.1l-10.1,22.4c-3.3-0.4-6.7-0.6-10.3-0.6c-3.5,0-7,0.2-10.3,0.6L71.5,15.7
		L58.2,44.7c-11.6,5.8-19.1,14.4-19.1,24.2c0,11.9,11.1,22.2,27.4,27.5c-4.8,6.8-6.7,13.4-7.5,18.1l-14.6-9.4
		c-6.8-4.2-12.8-2.9-15.4,2.4c-2.6,5.3-0.2,11.4,7.2,14.2l22.8,6.8l-1.8,5.2c-1.2,4.2-2,8.6-2,12.2c0,9.7,5.1,9.3,11.5,9.3
		c5.3,0,9.7,0.2,11-5.3c4.3,2,9,3.2,14.1,3.2c5,0,9.8-1.2,14.1-3.2c1.4,5.5,5.7,5.3,11,5.3c6.3,0,11.5,0.4,11.5-9.3
		c0-5.5-1.6-12.9-4.2-18.4c0.6-2.5,1-5.1,1-7.7c0-8.6-2.6-16.1-7.9-23.3C133.8,91.1,144.9,80.8,144.9,68.9z M57.8,66.6
		c0-2.6,4.2-4.8,9.8-5.4l3.4,8l3.4-8c5.7,0.6,9.8,2.8,9.8,5.4c0,3.1-5.9,5.6-13.2,5.6S57.8,69.7,57.8,66.6z M113,72.2
		c-7.3,0-13.3-2.5-13.3-5.6c0-2.6,4.2-4.8,9.8-5.4l3.4,8l3.4-8c5.7,0.6,9.8,2.8,9.8,5.4C126.2,69.7,120.3,72.2,113,72.2z"/>
</g>
</svg>
