<svg id="Layer_1" data-name="Layer 1" xmlns="http://www.w3.org/2000/svg" viewBox="0 0 106.11 120.09"><title>logo</title><g id="logo"><path d="M139.3,72.2c0-8.9-6.8-16.9-17.6-22.2L109.2,23.2,99.9,43.9a71.18,71.18,0,0,0-9.5-.6,73.41,73.41,0,0,0-9.5.6L71.6,23.2,59.4,49.9C48.7,55.2,41.8,63.1,41.8,72.1c0,11,10.2,20.5,25.2,25.3-4.4,6.2-4.46,9.26-5.2,13.33-3.5-3.82-8.46-8.23-15.43-10.28-7.8-2.29-13.17,1.76-13.17,6s2.79,7.25,11.16,8.83c5.56,1,11.47,2.37,17.54,7.48-2.2,6.88-3.25,9.18-3.25,12.4,0,8.42,4.37,8.14,9.86,8.14,4.56,0,8.28-1.7,9.39-6.53,3.63,1.7,8.28,2.18,12.55,2.18a25.24,25.24,0,0,0,11.43-2.18c1.21,4.73,4.83,6.53,9.39,6.53,5.49,0,9.86.38,9.86-8.14,0-4.73-1.39-8.33-3.63-13.15a27.33,27.33,0,0,0,.84-6.81c0-7.48.17-11.28-4.73-17.88C129.1,92.5,139.3,83.1,139.3,72.2ZM59.1,70c0-2.4,3.9-4.4,9-5l3.1,7.4L74.3,65c5.2,0.6,9,2.6,9,5,0,2.8-5.4,5.1-12.1,5.1S59.1,72.9,59.1,70Zm50.8,5.2c-6.7,0-12.3-2.3-12.3-5.1,0-2.4,3.9-4.4,9-5l3.1,7.4,3.1-7.4c5.2,0.6,9,2.6,9,5C122,72.9,116.6,75.2,109.9,75.2Z" transform="translate(-33.19 -23.2)"/></g></svg>