<?xml version="1.0" encoding="utf-8"?>
<!-- Generator: Adobe Illustrator 18.1.1, SVG Export Plug-In . SVG Version: 6.00 Build 0)  -->
<!DOCTYPE svg PUBLIC "-//W3C//DTD SVG 1.1//EN" "http://www.w3.org/Graphics/SVG/1.1/DTD/svg11.dtd" [
	<!ENTITY ns_extend "http://ns.adobe.com/Extensibility/1.0/">
	<!ENTITY ns_ai "http://ns.adobe.com/AdobeIllustrator/10.0/">
	<!ENTITY ns_graphs "http://ns.adobe.com/Graphs/1.0/">
	<!ENTITY ns_vars "http://ns.adobe.com/Variables/1.0/">
	<!ENTITY ns_imrep "http://ns.adobe.com/ImageReplacement/1.0/">
	<!ENTITY ns_sfw "http://ns.adobe.com/SaveForWeb/1.0/">
	<!ENTITY ns_custom "http://ns.adobe.com/GenericCustomNamespace/1.0/">
	<!ENTITY ns_adobe_xpath "http://ns.adobe.com/XPath/1.0/">
]>
<svg version="1.1" id="Layer_1" xmlns:x="&ns_extend;" xmlns:i="&ns_ai;" xmlns:graph="&ns_graphs;"
	 xmlns="http://www.w3.org/2000/svg" xmlns:xlink="http://www.w3.org/1999/xlink" x="0px" y="0px" viewBox="-169 460.9 96 48"
	 enable-background="new -169 460.9 96 48" xml:space="preserve">
<metadata><?xpacket begin="﻿" id="W5M0MpCehiHzreSzNTczkc9d"?>
<x:xmpmeta xmlns:x="adobe:ns:meta/" x:xmptk="Adobe XMP Core 5.6-c014 79.156821, 2014/08/29-03:07:50        ">
   <rdf:RDF xmlns:rdf="http://www.w3.org/1999/02/22-rdf-syntax-ns#">
      <rdf:Description rdf:about=""
            xmlns:xmp="http://ns.adobe.com/xap/1.0/"
            xmlns:xmpGImg="http://ns.adobe.com/xap/1.0/g/img/"
            xmlns:xmpTPg="http://ns.adobe.com/xap/1.0/t/pg/"
            xmlns:stDim="http://ns.adobe.com/xap/1.0/sType/Dimensions#"
            xmlns:xmpG="http://ns.adobe.com/xap/1.0/g/"
            xmlns:dc="http://purl.org/dc/elements/1.1/"
            xmlns:xmpMM="http://ns.adobe.com/xap/1.0/mm/"
            xmlns:stEvt="http://ns.adobe.com/xap/1.0/sType/ResourceEvent#">
         <xmp:CreatorTool>Adobe Illustrator CC 2014 (Macintosh)</xmp:CreatorTool>
         <xmp:CreateDate>2015-05-26T17:25:08+08:00</xmp:CreateDate>
         <xmp:MetadataDate>2015-05-26T17:25:08+08:00</xmp:MetadataDate>
         <xmp:ModifyDate>2015-05-26T17:25:08+08:00</xmp:ModifyDate>
         <xmp:Thumbnails>
            <rdf:Alt>
               <rdf:li rdf:parseType="Resource">
                  <xmpGImg:width>256</xmpGImg:width>
                  <xmpGImg:height>80</xmpGImg:height>
                  <xmpGImg:format>JPEG</xmpGImg:format>
                  <xmpGImg:image>/9j/4AAQSkZJRgABAgEASABIAAD/7QAsUGhvdG9zaG9wIDMuMAA4QklNA+0AAAAAABAASAAAAAEA&#xA;AQBIAAAAAQAB/+4ADkFkb2JlAGTAAAAAAf/bAIQABgQEBAUEBgUFBgkGBQYJCwgGBggLDAoKCwoK&#xA;DBAMDAwMDAwQDA4PEA8ODBMTFBQTExwbGxscHx8fHx8fHx8fHwEHBwcNDA0YEBAYGhURFRofHx8f&#xA;Hx8fHx8fHx8fHx8fHx8fHx8fHx8fHx8fHx8fHx8fHx8fHx8fHx8fHx8fHx8f/8AAEQgAUAEAAwER&#xA;AAIRAQMRAf/EAaIAAAAHAQEBAQEAAAAAAAAAAAQFAwIGAQAHCAkKCwEAAgIDAQEBAQEAAAAAAAAA&#xA;AQACAwQFBgcICQoLEAACAQMDAgQCBgcDBAIGAnMBAgMRBAAFIRIxQVEGE2EicYEUMpGhBxWxQiPB&#xA;UtHhMxZi8CRygvElQzRTkqKyY3PCNUQnk6OzNhdUZHTD0uIIJoMJChgZhJRFRqS0VtNVKBry4/PE&#xA;1OT0ZXWFlaW1xdXl9WZ2hpamtsbW5vY3R1dnd4eXp7fH1+f3OEhYaHiImKi4yNjo+Ck5SVlpeYmZ&#xA;qbnJ2en5KjpKWmp6ipqqusra6voRAAICAQIDBQUEBQYECAMDbQEAAhEDBCESMUEFURNhIgZxgZEy&#xA;obHwFMHR4SNCFVJicvEzJDRDghaSUyWiY7LCB3PSNeJEgxdUkwgJChgZJjZFGidkdFU38qOzwygp&#xA;0+PzhJSktMTU5PRldYWVpbXF1eX1RlZmdoaWprbG1ub2R1dnd4eXp7fH1+f3OEhYaHiImKi4yNjo&#xA;+DlJWWl5iZmpucnZ6fkqOkpaanqKmqq6ytrq+v/aAAwDAQACEQMRAD8A9U4q7FXYq7FXYq7FXYq7&#xA;FXYq7FXYq7FXYq7FXYq7FXYq7FXYq7FXYq7FXYq7FXYq7FXYq7FXYq7FXYq7FXYq7FXYq7FXYq7F&#xA;XYq7FXYq7FXYq7FXYq7FXYq7FXYq7FXYq7FXYq7FXYq7FXYq7FXYq7FXYq7FXYq7FXYq7FXYq7FX&#xA;Yq7FXYq7FXYq7FXYq7FXYq7FXYq7FXYq7FXYq7FXYq7FXYq7FXYq7FXYq7FXYq7FXYq7FXYq7FXY&#xA;q7FXYq7FXYq7FXYq7FXYq7FXYq7FXYq7FXYq7FXYq7FXYq7FXYq7FXYq7FXYq7FXYq7FXYq7FXYq&#xA;7FXYq7FXYq7FXYq7FXYq7FXYq7FXYq7FXYq7FXYq7FXYq7FXYq7FXYq7FXYq7FXYq7FXYq7FXYq7&#xA;FXYq7FXYq7FXYq7FXYq7FXYq7FXYq7FXYq7FXYq7FXYq7FXYq7FXYq7FXYq7FXYq7FXYq7FXYq7F&#xA;XYq7FXYq7FXYq7FXYq7FXYq7FXYq7FXYq7FXYq7FXYq7FXYq7FXYq7FXYq7FXYq7FXYq7FXYq7FX&#xA;Yq7FXYq7FXYq7FXYq7FXYq7FXYq7FXYq7FXYq7FXYq7FXYq7FXYq7FXYq7FXYq7FXYq7FXYq7FXY&#xA;q7FXYq7FXYq7FXYq7FXYq7FXYq7FXYq7FXYq7FXYq7FXYq7FXYq7FXYq7FXYq7FXYq7FXYq7FXYq&#xA;7FXYq7FXYq7FXYq7FXYq7FXYq7FXYq7FXYq7FXYq7FXYq7FXYq7FXYq7FXYq7FXYq7FXYq7FXYq7&#xA;FXYq7FXYq7FXYq7FXYq7FX//2Q==</xmpGImg:image>
               </rdf:li>
            </rdf:Alt>
         </xmp:Thumbnails>
         <xmpTPg:MaxPageSize rdf:parseType="Resource">
            <stDim:w>96.000000</stDim:w>
            <stDim:h>48.000000</stDim:h>
            <stDim:unit>Pixels</stDim:unit>
         </xmpTPg:MaxPageSize>
         <xmpTPg:NPages>1</xmpTPg:NPages>
         <xmpTPg:HasVisibleTransparency>False</xmpTPg:HasVisibleTransparency>
         <xmpTPg:HasVisibleOverprint>False</xmpTPg:HasVisibleOverprint>
         <xmpTPg:SwatchGroups>
            <rdf:Seq>
               <rdf:li rdf:parseType="Resource">
                  <xmpG:groupName>Default Swatch Group</xmpG:groupName>
                  <xmpG:groupType>0</xmpG:groupType>
               </rdf:li>
            </rdf:Seq>
         </xmpTPg:SwatchGroups>
         <dc:format>image/svg+xml</dc:format>
         <xmpMM:DerivedFrom rdf:parseType="Resource"/>
         <xmpMM:DocumentID>xmp.did:a5944684-a712-409f-a517-c2a865ecc29a</xmpMM:DocumentID>
         <xmpMM:InstanceID>xmp.iid:a5944684-a712-409f-a517-c2a865ecc29a</xmpMM:InstanceID>
         <xmpMM:OriginalDocumentID>xmp.did:a5944684-a712-409f-a517-c2a865ecc29a</xmpMM:OriginalDocumentID>
         <xmpMM:History>
            <rdf:Seq>
               <rdf:li rdf:parseType="Resource">
                  <stEvt:action>saved</stEvt:action>
                  <stEvt:instanceID>xmp.iid:a5944684-a712-409f-a517-c2a865ecc29a</stEvt:instanceID>
                  <stEvt:when>2015-05-26T17:25:08+08:00</stEvt:when>
                  <stEvt:softwareAgent>Adobe Illustrator CC 2014 (Macintosh)</stEvt:softwareAgent>
                  <stEvt:changed>/</stEvt:changed>
               </rdf:li>
            </rdf:Seq>
         </xmpMM:History>
      </rdf:Description>
   </rdf:RDF>
</x:xmpmeta>
                                                                                                    
                                                                                                    
                                                                                                    
                                                                                                    
                                                                                                    
                                                                                                    
                                                                                                    
                                                                                                    
                                                                                                    
                                                                                                    
                                                                                                    
                                                                                                    
                                                                                                    
                                                                                                    
                                                                                                    
                                                                                                    
                                                                                                    
                                                                                                    
                                                                                                    
                                                                                                    
                           
<?xpacket end="w"?>
	</metadata>
<path fill="#FFFFFF" d="M-93.7,480.1c-0.2-1-0.7-1.9-1.4-2.5c-0.5-0.5-1.2-0.9-1.9-1.3s-1.7-0.5-2.6-0.5c-1.1,0-2.2,0.2-3.2,0.7
	c-0.7,0.3-1.3,0.7-1.9,1.2l0.3-1.5c-0.4-0.2-0.8-0.3-1.2-0.3c-0.7,0-1.5,0.3-2.2,0.8c-0.7,0.5-1.4,1.4-2,2.5v-1.8
	c0-0.5-0.1-0.9-0.4-1.1s-0.7-0.3-1.1-0.3h-2.4l-0.4,3.2c0,0,0-0.1,0-0.1c-0.2-0.7-0.5-1.4-0.9-1.9c-0.4-0.5-0.8-0.8-1.4-1.1
	c-0.5-0.2-1.1-0.3-1.8-0.3c-1,0-1.9,0.3-2.8,0.8s-1.6,1.3-2.4,2.3v-1.4c0-0.5-0.1-0.9-0.4-1.1c-0.3-0.2-0.7-0.3-1.1-0.3h-2.4
	l-0.4,3.5c-0.3-0.8-0.7-1.4-1.3-2c-0.6-0.6-1.2-1-2-1.3c-0.7-0.3-1.6-0.5-2.5-0.5c-1.1,0-2.2,0.2-3.2,0.7c-1,0.5-1.9,1.2-2.6,2
	c-0.5,0.6-1,1.2-1.3,1.9c-0.1-0.3-0.1-0.5-0.2-0.7c-0.3-0.8-0.7-1.5-1.3-2.1c-0.6-0.6-1.2-1-2-1.3s-1.6-0.5-2.5-0.5
	c-1.1,0-2.2,0.2-3.2,0.7c-1,0.5-1.9,1.2-2.6,2c-0.7,0.8-1.3,1.8-1.8,2.9c-0.2-0.3-0.4-0.6-0.7-0.9c-0.3-0.4-0.8-0.7-1.3-1
	c-0.5-0.2-1-0.5-1.5-0.7c-0.5-0.2-1-0.4-1.5-0.6c-0.5-0.2-0.9-0.3-1.3-0.6c-0.3-0.2-0.7-0.5-0.9-0.7c-0.2-0.3-0.3-0.6-0.3-1
	c0-0.3,0.1-0.7,0.2-1c0.1-0.3,0.3-0.6,0.5-0.8c0.2-0.2,0.5-0.4,0.8-0.6c0.3-0.1,0.7-0.2,1.2-0.2c0.5,0,1,0.1,1.3,0.2
	c0.3,0.2,0.7,0.3,1,0.5c0.3,0.2,0.6,0.3,0.8,0.5c0.2,0.2,0.5,0.2,0.7,0.2s0.5-0.1,0.6-0.2c0.2-0.1,0.3-0.3,0.5-0.5l1.5-2
	c-0.3-0.4-0.7-0.7-1.1-1s-0.9-0.6-1.4-0.8c-0.5-0.2-1-0.4-1.6-0.6c-0.6-0.1-1.2-0.2-1.8-0.2c-1.2,0-2.3,0.2-3.3,0.6
	c-1,0.4-1.8,1-2.5,1.6c-0.7,0.7-1.2,1.5-1.6,2.4s-0.6,1.8-0.6,2.8c0,0.8,0.1,1.6,0.3,2.1c0.2,0.6,0.5,1.1,0.9,1.5
	c0.3,0.4,0.8,0.7,1.3,1c0.5,0.3,1,0.5,1.4,0.7c0.5,0.2,1,0.3,1.4,0.5c0.5,0.2,0.9,0.3,1.3,0.6c0.3,0.2,0.7,0.5,0.9,0.7
	c0.2,0.3,0.3,0.6,0.3,1.1c0.1,0.7-0.1,1.7-0.7,2.3c-0.7,0.5-1.2,0.7-2.1,0.7c-0.6,0-1.2-0.1-1.6-0.3c-0.4-0.2-0.8-0.4-1.1-0.7
	c-0.3-0.2-0.6-0.5-0.9-0.7c-0.3-0.2-0.5-0.3-0.8-0.3c-0.2,0-0.4,0.1-0.6,0.2c-0.2,0.1-0.4,0.3-0.5,0.4l-1.7,2.3
	c0.3,0.4,0.8,0.8,1.3,1.2s1,0.7,1.6,0.9c0.6,0.3,1.2,0.5,1.8,0.6c0.7,0.1,1.3,0.2,1.9,0.2c1.3,0,2.4-0.2,3.5-0.7
	c1-0.4,1.9-1,2.6-1.7c0.5-0.5,0.9-1.1,1.2-1.7c0,0.1,0.1,0.2,0.1,0.3c0.3,0.8,0.7,1.5,1.3,2.1c0.6,0.6,1.2,1,2,1.3
	c0.7,0.3,1.6,0.5,2.5,0.5c1.1,0,2.2-0.2,3.2-0.7s1.9-1.2,2.6-2c0.5-0.6,1-1.2,1.3-1.9c0.1,0.3,0.1,0.5,0.2,0.7
	c0.3,0.8,0.7,1.5,1.3,2.1c0.6,0.6,1.2,1,2,1.3c0.7,0.3,1.6,0.5,2.5,0.5c1.1,0,2.2-0.2,3.2-0.7c1-0.5,1.9-1.2,2.6-2
	c0.4-0.4,0.7-0.8,1-1.3l-1.3,10.6h4.6l0.9-7.7c0.4,0.3,0.8,0.6,1.3,0.8c0.5,0.2,1.1,0.3,1.7,0.3c1,0,2-0.3,2.9-0.8
	c0.9-0.6,1.7-1.3,2.4-2.3c0.4-0.5,0.7-1.1,1-1.7l-0.6,4.4l0,0h4.6l0.8-7.1c0.3-1.6,0.8-2.7,1.5-3.4c0.6-0.7,1.2-1,2-1
	c-0.2,0.4-0.4,0.8-0.6,1.2c-0.5,1.2-0.7,2.5-0.7,3.8c0,1.1,0.2,2,0.5,2.8c0.3,0.8,0.7,1.5,1.3,2.1c0.6,0.6,1.2,1,2,1.3
	s1.6,0.5,2.5,0.5c1.1,0,2.2-0.2,3.2-0.7c1-0.5,1.8-1,2.6-1.9c0.7-0.8,1.3-1.7,1.8-2.7c0.5-1,0.8-2.1,0.9-3.3
	C-93.4,481.9-93.5,481-93.7,480.1z M-145.1,484.9c-0.2,0.7-0.4,1.4-0.7,1.9c-0.3,0.6-0.6,1-1,1.3c-0.4,0.3-0.9,0.5-1.4,0.5
	c-0.7,0-1.2-0.3-1.5-0.7c-0.3-0.5-0.5-1.3-0.5-2.5c0-0.8,0.1-1.6,0.2-2.3c0.2-0.7,0.4-1.4,0.7-1.9c0.3-0.6,0.7-1,1-1.3
	c0.4-0.3,0.9-0.5,1.4-0.5c0.7,0,1.2,0.3,1.5,0.7c0.3,0.5,0.5,1.3,0.5,2.5C-144.8,483.4-144.9,484.1-145.1,484.9z M-131.9,484.9
	c-0.2,0.7-0.4,1.4-0.7,1.9c-0.3,0.6-0.6,1-1,1.3c-0.4,0.3-0.9,0.5-1.4,0.5c-0.7,0-1.2-0.3-1.5-0.7c-0.3-0.5-0.5-1.3-0.5-2.5
	c0-0.8,0.1-1.6,0.2-2.3c0.2-0.7,0.4-1.4,0.7-1.9c0.3-0.6,0.7-1,1-1.3c0.4-0.3,0.9-0.5,1.4-0.5c0.7,0,1.2,0.3,1.5,0.7
	c0.3,0.5,0.5,1.3,0.5,2.5C-131.7,483.4-131.8,484.1-131.9,484.9z M-118.6,484.6c-0.2,0.7-0.5,1.4-0.8,2c-0.3,0.6-0.7,1.1-1.2,1.4
	c-0.5,0.3-1,0.6-1.5,0.6c-0.3,0-0.7,0-1-0.2c-0.3-0.1-0.7-0.3-1-0.5l0.5-3.8c0.2-0.7,0.4-1.3,0.7-1.9c0.3-0.6,0.6-1.1,0.9-1.5
	c0.3-0.4,0.7-0.7,1-1s0.7-0.3,1-0.3c0.5,0,0.8,0.2,1.2,0.7c0.3,0.5,0.5,1.2,0.5,2.2C-118.3,483.1-118.4,483.8-118.6,484.6z
	 M-98.2,484.9c-0.2,0.7-0.4,1.4-0.7,1.9c-0.3,0.6-0.6,1-1,1.3c-0.4,0.3-0.9,0.5-1.4,0.5c-0.7,0-1.2-0.3-1.5-0.7
	c-0.3-0.5-0.5-1.3-0.5-2.5c0-0.8,0.1-1.6,0.2-2.3c0.2-0.7,0.4-1.4,0.7-1.9c0.3-0.6,0.6-1,1-1.3c0.4-0.3,0.9-0.5,1.4-0.5
	c0.7,0,1.2,0.3,1.5,0.7c0.3,0.5,0.5,1.3,0.5,2.5C-97.9,483.4-98,484.1-98.2,484.9z"/>
<g>
	<path fill="#FFFFFF" d="M-90.8,482.8l0.6-6.8h2.3c0.4,0,0.7,0,1,0.1c0.3,0.1,0.5,0.2,0.7,0.3c0.2,0.2,0.3,0.3,0.4,0.6
		c0.1,0.2,0.1,0.5,0.1,0.8c0,0.3-0.1,0.6-0.3,0.8c-0.2,0.3-0.5,0.4-0.8,0.6c0.2,0.1,0.4,0.1,0.5,0.2c0.1,0.1,0.2,0.2,0.3,0.4
		c0.1,0.1,0.1,0.3,0.2,0.5s0,0.3,0,0.5c0,0.3-0.1,0.6-0.2,0.9c-0.1,0.2-0.3,0.5-0.5,0.6c-0.2,0.2-0.5,0.3-0.8,0.4
		c-0.3,0.1-0.6,0.1-1,0.1H-90.8z M-89.4,479.7l-0.2,2.1h1.3c0.2,0,0.4,0,0.5-0.1c0.2-0.1,0.3-0.1,0.4-0.2c0.1-0.1,0.2-0.2,0.3-0.3
		c0.1-0.1,0.1-0.3,0.1-0.4c0-0.3,0-0.6-0.2-0.8c-0.2-0.2-0.4-0.3-0.8-0.3H-89.4z M-89.3,478.8h1.2c0.4,0,0.7-0.1,0.9-0.3
		c0.2-0.2,0.3-0.4,0.4-0.7c0-0.3,0-0.6-0.2-0.7c-0.2-0.1-0.5-0.2-0.9-0.2h-1.2L-89.3,478.8z"/>
	<path fill="#FFFFFF" d="M-83.1,482.9c-0.4,0-0.7-0.1-1-0.2c-0.3-0.1-0.5-0.3-0.7-0.5c-0.2-0.2-0.3-0.5-0.4-0.8
		c-0.1-0.3-0.1-0.6-0.1-1l0-0.2c0-0.4,0.1-0.8,0.3-1.1c0.1-0.3,0.3-0.6,0.6-0.8c0.2-0.2,0.5-0.4,0.8-0.5c0.3-0.1,0.6-0.2,0.9-0.2
		c0.4,0,0.7,0.1,0.9,0.2c0.3,0.1,0.5,0.3,0.6,0.5s0.3,0.5,0.3,0.8c0.1,0.3,0.1,0.6,0,1l0,0.5h-3.3c0,0.2,0,0.4,0.1,0.5
		c0.1,0.2,0.1,0.3,0.2,0.4s0.2,0.2,0.4,0.3c0.2,0.1,0.3,0.1,0.5,0.1c0.3,0,0.5-0.1,0.8-0.2c0.2-0.1,0.4-0.3,0.6-0.5l0.6,0.6
		c-0.1,0.1-0.2,0.2-0.3,0.4c-0.1,0.1-0.3,0.2-0.4,0.3c-0.2,0.1-0.4,0.2-0.6,0.2C-82.6,482.8-82.9,482.9-83.1,482.9z M-82.9,478.5
		c-0.3,0-0.6,0.1-0.8,0.3c-0.2,0.2-0.4,0.5-0.4,0.9h2.2l0-0.1c0-0.2,0-0.3,0-0.4c0-0.1-0.1-0.3-0.1-0.4c-0.1-0.1-0.2-0.2-0.3-0.3
		C-82.5,478.5-82.7,478.5-82.9,478.5z"/>
	<path fill="#FFFFFF" d="M-78.7,476.4l-0.1,1.2h0.9l-0.1,0.8h-0.9l-0.2,2.8c0,0.1,0,0.2,0,0.3s0.1,0.1,0.1,0.2c0,0,0.1,0.1,0.2,0.1
		s0.1,0,0.2,0c0.1,0,0.2,0,0.2,0c0.1,0,0.1,0,0.2,0l-0.1,0.9c-0.1,0-0.2,0-0.3,0.1c-0.1,0-0.3,0-0.4,0c-0.2,0-0.4,0-0.5-0.1
		c-0.2-0.1-0.3-0.1-0.4-0.2c-0.1-0.1-0.2-0.3-0.2-0.4c-0.1-0.2-0.1-0.4,0-0.7l0.3-2.9h-0.8l0.1-0.8h0.8l0.1-1.2H-78.7z"/>
	<path fill="#FFFFFF" d="M-74.9,482.8c0-0.1,0-0.1-0.1-0.2c0-0.1,0-0.2,0-0.3c-0.1,0.1-0.2,0.2-0.3,0.2c-0.1,0.1-0.2,0.1-0.3,0.2
		c-0.1,0.1-0.2,0.1-0.4,0.1c-0.1,0-0.3,0-0.4,0c-0.3,0-0.5,0-0.7-0.1c-0.2-0.1-0.4-0.2-0.5-0.3c-0.1-0.1-0.2-0.3-0.3-0.5
		c-0.1-0.2-0.1-0.4-0.1-0.6c0-0.3,0.1-0.5,0.2-0.7c0.1-0.2,0.3-0.4,0.5-0.5s0.5-0.2,0.8-0.3c0.3-0.1,0.6-0.1,1-0.1h0.7l0-0.3
		c0-0.3,0-0.5-0.2-0.6c-0.1-0.2-0.4-0.2-0.7-0.2c-0.1,0-0.3,0-0.4,0.1c-0.1,0-0.2,0.1-0.3,0.1c-0.1,0.1-0.1,0.1-0.2,0.2
		c0,0.1-0.1,0.2-0.1,0.3h-1.1c0-0.2,0.1-0.4,0.2-0.6c0.1-0.2,0.3-0.4,0.5-0.5c0.2-0.1,0.4-0.3,0.7-0.4c0.3-0.1,0.6-0.1,0.9-0.1
		c0.3,0,0.5,0,0.8,0.1c0.2,0.1,0.4,0.2,0.6,0.3c0.2,0.1,0.3,0.3,0.4,0.5c0.1,0.2,0.1,0.5,0.1,0.8l-0.2,2.3c0,0.5,0,0.8,0.1,1.1
		l0,0.1H-74.9z M-76.1,481.9c0.1,0,0.3,0,0.4-0.1s0.2-0.1,0.3-0.1c0.1-0.1,0.2-0.1,0.3-0.2c0.1-0.1,0.1-0.1,0.2-0.2l0.1-1h-0.6
		c-0.4,0-0.7,0.1-1,0.2c-0.2,0.1-0.4,0.4-0.4,0.6c0,0.1,0,0.2,0,0.3c0,0.1,0.1,0.2,0.1,0.2c0.1,0.1,0.1,0.1,0.2,0.2
		S-76.2,481.9-76.1,481.9z"/>
</g>
</svg>
