<svg xmlns="http://www.w3.org/2000/svg" xmlns:xlink="http://www.w3.org/1999/xlink" width="26" height="2064" viewBox="0 0 26 2064"><svg width="24" height="24" viewBox="0 0 24 24" id="ic_arrow_back_24px" y="0"><path d="M20 11H7.83l5.59-5.59L12 4l-8 8 8 8 1.41-1.41L7.83 13H20v-2z"/></svg><svg width="24" height="24" viewBox="0 0 24 24" id="ic_arrow_drop_down_24px" y="24"><path d="M7 10l5 5 5-5z"/></svg><svg width="24" height="24" viewBox="0 0 24 24" id="ic_arrow_drop_down_circle_24px" y="48"><path d="M12 2C6.48 2 2 6.48 2 12s4.48 10 10 10 10-4.48 10-10S17.52 2 12 2zm0 12l-4-4h8l-4 4z"/></svg><svg width="24" height="24" viewBox="0 0 24 24" id="ic_arrow_drop_up_24px" y="72"><path d="M7 14l5-5 5 5z"/></svg><svg width="24" height="24" viewBox="0 0 24 24" id="ic_arrow_forward_24px" y="96"><path d="M12 4l-1.41 1.41L16.17 11H4v2h12.17l-5.58 5.59L12 20l8-8z"/></svg><svg width="24" height="24" viewBox="0 0 24 24" id="ic_check_24px" y="120"><path d="M9 16.17L4.83 12l-1.42 1.41L9 19 21 7l-1.41-1.41z"/></svg><svg width="24" height="24" viewBox="0 0 24 24" id="ic_chevron_left_24px" y="144"><path d="M15.41 7.41L14 6l-6 6 6 6 1.41-1.41L10.83 12z"/></svg><svg width="24" height="24" viewBox="0 0 24 24" id="ic_chevron_right_24px" y="168"><path d="M10 6L8.59 7.41 13.17 12l-4.58 4.59L10 18l6-6z"/></svg><svg width="24" height="24" viewBox="0 0 24 24" id="ic_unfold_less_24px" y="192"><path d="M7.41 18.59L8.83 20 12 16.83 15.17 20l1.41-1.41L12 14l-4.59 4.59zm9.18-13.18L15.17 4 12 7.17 8.83 4 7.41 5.41 12 10l4.59-4.59z"/></svg><svg width="24" height="24" viewBox="0 0 24 24" id="ic_unfold_more_24px" y="216"><path d="M12 5.83L15.17 9l1.41-1.41L12 3 7.41 7.59 8.83 9 12 5.83zm0 12.34L8.83 15l-1.41 1.41L12 21l4.59-4.59L15.17 15 12 18.17z"/></svg><svg width="24" height="24" viewBox="0 0 24 24" id="ic_close_24px" y="240"><path d="M19 6.41L17.59 5 12 10.59 6.41 5 5 6.41 10.59 12 5 17.59 6.41 19 12 13.41 17.59 19 19 17.59 13.41 12z"/></svg><svg width="24" height="24" viewBox="0 0 24 24" id="ic_expand_less_24px" y="264"><path d="M12 8l-6 6 1.41 1.41L12 10.83l4.59 4.58L18 14z"/></svg><svg width="24" height="24" viewBox="0 0 24 24" id="ic_expand_more_24px" y="288"><path d="M16.59 8.59L12 13.17 7.41 8.59 6 10l6 6 6-6z"/></svg><svg width="24" height="24" viewBox="0 0 24 24" id="ic_fullscreen_24px" y="312"><path d="M7 14H5v5h5v-2H7v-3zm-2-4h2V7h3V5H5v5zm12 7h-3v2h5v-5h-2v3zM14 5v2h3v3h2V5h-5z"/></svg><svg width="24" height="24" viewBox="0 0 24 24" id="ic_fullscreen_exit_24px" y="336"><path d="M5 16h3v3h2v-5H5v2zm3-8H5v2h5V5H8v3zm6 11h2v-3h3v-2h-5v5zm2-11V5h-2v5h5V8h-3z"/></svg><svg width="24" height="24" viewBox="0 0 24 24" id="ic_menu_24px" y="360"><path d="M3 18h18v-2H3v2zm0-5h18v-2H3v2zm0-7v2h18V6H3z"/></svg><svg width="24" height="24" viewBox="0 0 24 24" id="ic_more_horiz_24px" y="384"><path d="M6 10c-1.1 0-2 .9-2 2s.9 2 2 2 2-.9 2-2-.9-2-2-2zm12 0c-1.1 0-2 .9-2 2s.9 2 2 2 2-.9 2-2-.9-2-2-2zm-6 0c-1.1 0-2 .9-2 2s.9 2 2 2 2-.9 2-2-.9-2-2-2z"/></svg><svg width="24" height="24" viewBox="0 0 24 24" id="ic_more_vert_24px" y="408"><path d="M12 8c1.1 0 2-.9 2-2s-.9-2-2-2-2 .9-2 2 .9 2 2 2zm0 2c-1.1 0-2 .9-2 2s.9 2 2 2 2-.9 2-2-.9-2-2-2zm0 6c-1.1 0-2 .9-2 2s.9 2 2 2 2-.9 2-2-.9-2-2-2z"/></svg><svg width="24" height="24" viewBox="0 0 24 24" id="ic_refresh_24px" y="432"><path d="M17.65 6.35C16.2 4.9 14.21 4 12 4c-4.42 0-7.99 3.58-7.99 8s3.57 8 7.99 8c3.73 0 6.84-2.55 7.73-6h-2.08c-.82 2.33-3.04 4-5.65 4-3.31 0-6-2.69-6-6s2.69-6 6-6c1.66 0 3.14.69 4.22 1.78L13 11h7V4l-2.35 2.35z"/></svg><svg width="24" height="24" viewBox="0 0 24 24" id="ic_qrcode_24px" y="456"><path d="M7.9 16.1v1.6h-1.6v-1.6h1.6zM7.9 6.3v1.6h-1.6v-1.6h1.6zM17.7 6.3v1.6h-1.6v-1.6h1.6zM4.6 19.4h4.9v-4.9h-4.9c0 0 0 4.9 0 4.9zM4.6 9.6h4.9v-5h-4.9c0 0 0 5 0 5zM14.5 9.6h4.9v-5h-4.9v5zM11.2 12.8v8.2h-8.2v-8.2h8.2zM17.7 19.4v1.6h-1.6v-1.6h1.6zM21 19.4v1.6h-1.6v-1.6h1.6zM21 12.8v4.9h-4.9v-1.6h-1.6v4.9h-1.6v-8.2h4.9v1.6h1.6v-1.6h1.6zM11.2 3v8.2h-8.2v-8.2h8.2zM21 3v8.2h-8.2v-8.2h8.2z"></path></svg><svg width="24" height="24" viewBox="0 0 24 24" id="ic_add_24px" y="480"><path d="M19 13h-6v6h-2v-6H5v-2h6V5h2v6h6v2z"/></svg><svg width="24" height="24" viewBox="0 0 24 24" id="ic_block_24px" y="504"><path d="M12 2C6.48 2 2 6.48 2 12s4.48 10 10 10 10-4.48 10-10S17.52 2 12 2zM4 12c0-4.42 3.58-8 8-8 1.85 0 3.55.63 4.9 1.69L5.69 16.9C4.63 15.55 4 13.85 4 12zm8 8c-1.85 0-3.55-.63-4.9-1.69L18.31 7.1C19.37 8.45 20 10.15 20 12c0 4.42-3.58 8-8 8z"/></svg><svg width="24" height="24" viewBox="0 0 24 24" id="ic_clear_24px" y="528"><path d="M19 6.41L17.59 5 12 10.59 6.41 5 5 6.41 10.59 12 5 17.59 6.41 19 12 13.41 17.59 19 19 17.59 13.41 12z"/></svg><svg width="24" height="24" viewBox="0 0 24 24" id="ic_content_copy_24px" y="552"><path d="M16 1H4c-1.1 0-2 .9-2 2v14h2V3h12V1zm3 4H8c-1.1 0-2 .9-2 2v14c0 1.1.9 2 2 2h11c1.1 0 2-.9 2-2V7c0-1.1-.9-2-2-2zm0 16H8V7h11v14z"/></svg><svg width="24" height="24" viewBox="0 0 24 24" id="ic_content_paste_24px" y="576"><path d="M19 2h-4.18C14.4.84 13.3 0 12 0c-1.3 0-2.4.84-2.82 2H5c-1.1 0-2 .9-2 2v16c0 1.1.9 2 2 2h14c1.1 0 2-.9 2-2V4c0-1.1-.9-2-2-2zm-7 0c.55 0 1 .45 1 1s-.45 1-1 1-1-.45-1-1 .45-1 1-1zm7 18H5V4h2v3h10V4h2v16z"/></svg><svg width="24" height="24" viewBox="0 0 24 24" id="ic_create_24px" y="600"><path d="M3 17.25V21h3.75L17.81 9.94l-3.75-3.75L3 17.25zM20.71 7.04c.39-.39.39-1.02 0-1.41l-2.34-2.34c-.39-.39-1.02-.39-1.41 0l-1.83 1.83 3.75 3.75 1.83-1.83z"/></svg><svg width="24" height="24" viewBox="0 0 24 24" id="ic_flag_24px" y="624"><path d="M14.4 6L14 4H5v17h2v-7h5.6l.4 2h7V6z"/></svg><svg width="24" height="24" viewBox="0 0 24 24" id="ic_link_24px" y="648"><path d="M3.9 12c0-1.71 1.39-3.1 3.1-3.1h4V7H7c-2.76 0-5 2.24-5 5s2.24 5 5 5h4v-1.9H7c-1.71 0-3.1-1.39-3.1-3.1zM8 13h8v-2H8v2zm9-6h-4v1.9h4c1.71 0 3.1 1.39 3.1 3.1s-1.39 3.1-3.1 3.1h-4V17h4c2.76 0 5-2.24 5-5s-2.24-5-5-5z"/></svg><svg width="24" height="24" viewBox="0 0 24 24" id="ic_remove_24px" y="672"><path d="M19 13H5v-2h14v2z"/></svg><svg width="24" height="24" viewBox="0 0 24 24" id="ic_reply_24px" y="696"><path d="M10 9V5l-7 7 7 7v-4.1c5 0 8.5 1.6 11 5.1-1-5-4-10-11-11z"/></svg><svg width="24" height="24" viewBox="0 0 24 24" id="ic_reply_all_24px" y="720"><path d="M7 8V5l-7 7 7 7v-3l-4-4 4-4zm6 1V5l-7 7 7 7v-4.1c5 0 8.5 1.6 11 5.1-1-5-4-10-11-11z"/></svg><svg width="24" height="24" viewBox="0 0 24 24" id="ic_send_24px" y="744"><path d="M2.01 21L23 12 2.01 3 2 10l15 2-15 2z"/></svg><svg width="24" height="24" viewBox="0 0 24 24" id="ic_sort_24px" y="768"><path d="M3 18h6v-2H3v2zM3 6v2h18V6H3zm0 7h12v-2H3v2z"/></svg><svg width="24" height="24" viewBox="0 0 24 24" id="ic_redo_24px" y="792"><path d="M18.4 10.6C16.55 8.99 14.15 8 11.5 8c-4.65 0-8.58 3.03-9.96 7.22L3.9 16c1.05-3.19 4.05-5.5 7.6-5.5 1.95 0 3.73.72 5.12 1.88L13 16h9V7l-3.6 3.6z"/></svg><svg width="24" height="24" viewBox="0 0 24 24" id="ic_undo_24px" y="816"><path d="M12.5 8c-2.65 0-5.05.99-6.9 2.6L2 7v9h9l-3.62-3.62c1.39-1.16 3.16-1.88 5.12-1.88 3.54 0 6.55 2.31 7.6 5.5l2.37-.78C21.08 11.03 17.15 8 12.5 8z"/></svg><svg width="24" height="24" viewBox="0 0 24 24" id="ic_delete_24px" y="840"><path d="M6 19c0 1.1.9 2 2 2h8c1.1 0 2-.9 2-2V7H6v12zM19 4h-3.5l-1-1h-5l-1 1H5v2h14V4z"/></svg><svg width="24" height="24" viewBox="0 0 24 24" id="ic_language_24px" y="864"><path d="M11.99 2C6.47 2 2 6.48 2 12s4.47 10 9.99 10C17.52 22 22 17.52 22 12S17.52 2 11.99 2zm6.93 6h-2.95c-.32-1.25-.78-2.45-1.38-3.56 1.84.63 3.37 1.91 4.33 3.56zM12 4.04c.83 1.2 1.48 2.53 1.91 3.96h-3.82c.43-1.43 1.08-2.76 1.91-3.96zM4.26 14C4.1 13.36 4 12.69 4 12s.1-1.36.26-2h3.38c-.08.66-.14 1.32-.14 2 0 .68.06 1.34.14 2H4.26zm.82 2h2.95c.32 1.25.78 2.45 1.38 3.56-1.84-.63-3.37-1.9-4.33-3.56zm2.95-8H5.08c.96-1.66 2.49-2.93 4.33-3.56C8.81 5.55 8.35 6.75 8.03 8zM12 19.96c-.83-1.2-1.48-2.53-1.91-3.96h3.82c-.43 1.43-1.08 2.76-1.91 3.96zM14.34 14H9.66c-.09-.66-.16-1.32-.16-2 0-.68.07-1.35.16-2h4.68c.09.65.16 1.32.16 2 0 .68-.07 1.34-.16 2zm.25 5.56c.6-1.11 1.06-2.31 1.38-3.56h2.95c-.96 1.65-2.49 2.93-4.33 3.56zM16.36 14c.08-.66.14-1.32.14-2 0-.68-.06-1.34-.14-2h3.38c.16.64.26 1.31.26 2s-.1 1.36-.26 2h-3.38z"/></svg><svg width="24" height="24" viewBox="0 0 24 24" id="ic_error_24px" y="888"><path d="M12 2C6.48 2 2 6.48 2 12s4.48 10 10 10 10-4.48 10-10S17.52 2 12 2zm1 15h-2v-2h2v2zm0-4h-2V7h2v6z"/></svg><svg width="24" height="24" viewBox="0 0 24 24" id="ic_warning_24px" y="912"><path d="M1 21h22L12 2 1 21zm12-3h-2v-2h2v2zm0-4h-2v-4h2v4z"/></svg><svg width="24" height="24" viewBox="0 0 24 24" id="ic_exit_24px" y="936"><path d="M10.09 15.59L11.5 17l5-5-5-5-1.41 1.41L12.67 11H3v2h9.67l-2.58 2.59zM19 3H5c-1.11 0-2 .9-2 2v4h2V5h14v14H5v-4H3v4c0 1.1.89 2 2 2h14c1.1 0 2-.9 2-2V5c0-1.1-.9-2-2-2z"/></svg><svg width="24" height="24" viewBox="0 0 24 24" id="ic_layers_24px" y="960"><path d="M11.99 18.54l-7.37-5.73L3 14.07l9 7 9-7-1.63-1.27-7.38 5.74zM12 16l7.36-5.73L21 9l-9-7-9 7 1.63 1.27L12 16z"/></svg><svg width="24" height="24" viewBox="0 0 24 24" id="ic_people_24px" y="984"><path d="M16 11c1.66 0 2.99-1.34 2.99-3S17.66 5 16 5c-1.66 0-3 1.34-3 3s1.34 3 3 3zm-8 0c1.66 0 2.99-1.34 2.99-3S9.66 5 8 5C6.34 5 5 6.34 5 8s1.34 3 3 3zm0 2c-2.33 0-7 1.17-7 3.5V19h14v-2.5c0-2.33-4.67-3.5-7-3.5zm8 0c-.29 0-.62.02-.97.05 1.16.84 1.97 1.97 1.97 3.45V19h6v-2.5c0-2.33-4.67-3.5-7-3.5z"/></svg><svg width="24" height="24" viewBox="0 0 24 24" id="ic_apps_24px" y="1008"><path d="M4 8h4V4H4v4zm6 12h4v-4h-4v4zm-6 0h4v-4H4v4zm0-6h4v-4H4v4zm6 0h4v-4h-4v4zm6-10v4h4V4h-4zm-6 4h4V4h-4v4zm6 6h4v-4h-4v4zm0 6h4v-4h-4v4z"/></svg><svg width="24" height="24" viewBox="0 0 24 24" id="ic_local_play_24px" y="1032"><path d="M20 12c0-1.1.9-2 2-2V6c0-1.1-.9-2-2-2H4c-1.1 0-1.99.9-1.99 2v4c1.1 0 1.99.9 1.99 2s-.89 2-2 2v4c0 1.1.9 2 2 2h16c1.1 0 2-.9 2-2v-4c-1.1 0-2-.9-2-2zm-4.42 4.8L12 14.5l-3.58 2.3 1.08-4.12-3.29-2.69 4.24-.25L12 5.8l1.54 3.95 4.24.25-3.29 2.69 1.09 4.11z"/></svg><svg width="24" height="24" viewBox="0 0 24 24" id="ic_event_24px" y="1056"><path d="M17 12h-5v5h5v-5zM16 1v2H8V1H6v2H5c-1.11 0-1.99.9-1.99 2L3 19c0 1.1.89 2 2 2h14c1.1 0 2-.9 2-2V5c0-1.1-.9-2-2-2h-1V1h-2zm3 18H5V8h14v11z"/></svg><svg width="24" height="24" viewBox="0 0 24 24" id="ic_dashboard_24px" y="1080"><path d="M3 13h8V3H3v10zm0 8h8v-6H3v6zm10 0h8V11h-8v10zm0-18v6h8V3h-8z"/></svg><svg width="24" height="24" viewBox="0 0 24 24" id="ic_assignment_ind_24px" y="1104"><path d="M19 3h-4.18C14.4 1.84 13.3 1 12 1c-1.3 0-2.4.84-2.82 2H5c-1.1 0-2 .9-2 2v14c0 1.1.9 2 2 2h14c1.1 0 2-.9 2-2V5c0-1.1-.9-2-2-2zm-7 0c.55 0 1 .45 1 1s-.45 1-1 1-1-.45-1-1 .45-1 1-1zm0 4c1.66 0 3 1.34 3 3s-1.34 3-3 3-3-1.34-3-3 1.34-3 3-3zm6 12H6v-1.4c0-2 4-3.1 6-3.1s6 1.1 6 3.1V19z"/></svg><svg width="24" height="24" viewBox="0 0 24 24" id="ic_done_24px" y="1128"><path d="M9 16.17L4.83 12l-1.42 1.41L9 19 21 7l-1.41-1.41z"/></svg><svg width="24" height="24" viewBox="0 0 24 24" id="ic_block_24px" y="1152"><path d="M12 2C6.48 2 2 6.48 2 12s4.48 10 10 10 10-4.48 10-10S17.52 2 12 2zM4 12c0-4.42 3.58-8 8-8 1.85 0 3.55.63 4.9 1.69L5.69 16.9C4.63 15.55 4 13.85 4 12zm8 8c-1.85 0-3.55-.63-4.9-1.69L18.31 7.1C19.37 8.45 20 10.15 20 12c0 4.42-3.58 8-8 8z"/></svg><svg width="24" height="24" viewBox="0 0 24 24" id="ic_person_24px" y="1176"><path d="M12 12c2.21 0 4-1.79 4-4s-1.79-4-4-4-4 1.79-4 4 1.79 4 4 4zm0 2c-2.67 0-8 1.34-8 4v2h16v-2c0-2.66-5.33-4-8-4z"/></svg><svg width="24" height="24" viewBox="0 0 24 24" id="ic_android_24px" y="1200"><path d="M6 18c0 .55.45 1 1 1h1v3.5c0 .83.67 1.5 1.5 1.5s1.5-.67 1.5-1.5V19h2v3.5c0 .83.67 1.5 1.5 1.5s1.5-.67 1.5-1.5V19h1c.55 0 1-.45 1-1V8H6v10zM3.5 8C2.67 8 2 8.67 2 9.5v7c0 .83.67 1.5 1.5 1.5S5 17.33 5 16.5v-7C5 8.67 4.33 8 3.5 8zm17 0c-.83 0-1.5.67-1.5 1.5v7c0 .83.67 1.5 1.5 1.5s1.5-.67 1.5-1.5v-7c0-.83-.67-1.5-1.5-1.5zm-4.97-5.84l1.3-1.3c.2-.2.2-.51 0-.71-.2-.2-.51-.2-.71 0l-1.48 1.48C13.85 1.23 12.95 1 12 1c-.96 0-1.86.23-2.66.63L7.85.15c-.2-.2-.51-.2-.71 0-.2.2-.2.51 0 .71l1.31 1.31C6.97 3.26 6 5.01 6 7h12c0-1.99-.97-3.75-2.47-4.84zM10 5H9V4h1v1zm5 0h-1V4h1v1z"/></svg></svg>